<mxfile host="app.diagrams.net" modified="2024-03-28T11:32:32.895Z" agent="Mozilla/5.0 (X11; Linux x86_64; rv:109.0) Gecko/20100101 Firefox/115.0" etag="4VyS3E1Hr5oBKr7YwWGf" version="23.1.1" type="github">
  <diagram name="Seite-1" id="miQSFxlr1b2D0B6uCDPD">
    <mxGraphModel dx="1434" dy="778" grid="1" gridSize="10" guides="1" tooltips="1" connect="1" arrows="1" fold="1" page="1" pageScale="1" pageWidth="827" pageHeight="1169" math="0" shadow="0">
      <root>
        <mxCell id="0" />
        <mxCell id="1" parent="0" />
        <mxCell id="SnkdIcdr0kY23S-2RLd7-2" value="&lt;font style=&quot;font-size: 31px;&quot;&gt;Microsoft GraphAPI&lt;br&gt;&lt;/font&gt;" style="rounded=0;whiteSpace=wrap;html=1;" vertex="1" parent="1">
          <mxGeometry x="40" y="40" width="760" height="80" as="geometry" />
        </mxCell>
        <mxCell id="SnkdIcdr0kY23S-2RLd7-3" value="&lt;font style=&quot;font-size: 21px;&quot;&gt;getMeeting.dart&lt;/font&gt;" style="rounded=0;whiteSpace=wrap;html=1;" vertex="1" parent="1">
          <mxGeometry x="440" y="240" width="240" height="80" as="geometry" />
        </mxCell>
        <mxCell id="SnkdIcdr0kY23S-2RLd7-4" value="" style="endArrow=classic;html=1;rounded=0;entryX=0.738;entryY=0.975;entryDx=0;entryDy=0;entryPerimeter=0;" edge="1" parent="1" target="SnkdIcdr0kY23S-2RLd7-2">
          <mxGeometry width="50" height="50" relative="1" as="geometry">
            <mxPoint x="600" y="240" as="sourcePoint" />
            <mxPoint x="650" y="190" as="targetPoint" />
          </mxGeometry>
        </mxCell>
        <mxCell id="SnkdIcdr0kY23S-2RLd7-5" value="" style="endArrow=classic;html=1;rounded=0;entryX=0.25;entryY=0;entryDx=0;entryDy=0;" edge="1" parent="1" target="SnkdIcdr0kY23S-2RLd7-3">
          <mxGeometry width="50" height="50" relative="1" as="geometry">
            <mxPoint x="500" y="120" as="sourcePoint" />
            <mxPoint x="550" y="70" as="targetPoint" />
          </mxGeometry>
        </mxCell>
        <mxCell id="SnkdIcdr0kY23S-2RLd7-6" value="" style="endArrow=classic;html=1;rounded=0;exitX=0.013;exitY=0.625;exitDx=0;exitDy=0;exitPerimeter=0;" edge="1" parent="1" source="SnkdIcdr0kY23S-2RLd7-3">
          <mxGeometry width="50" height="50" relative="1" as="geometry">
            <mxPoint x="310" y="280" as="sourcePoint" />
            <mxPoint x="200" y="400" as="targetPoint" />
          </mxGeometry>
        </mxCell>
        <mxCell id="SnkdIcdr0kY23S-2RLd7-7" value="&lt;font style=&quot;font-size: 21px;&quot;&gt;SharedPreferences&lt;font style=&quot;font-size: 21px;&quot;&gt;&lt;br&gt;&lt;/font&gt;&lt;/font&gt;" style="rounded=0;whiteSpace=wrap;html=1;" vertex="1" parent="1">
          <mxGeometry x="40" y="400" width="320" height="80" as="geometry" />
        </mxCell>
        <mxCell id="SnkdIcdr0kY23S-2RLd7-8" value="&lt;font style=&quot;font-size: 22px;&quot;&gt;Frontend&lt;/font&gt;" style="rounded=0;whiteSpace=wrap;html=1;" vertex="1" parent="1">
          <mxGeometry x="360" y="520" width="440" height="120" as="geometry" />
        </mxCell>
        <mxCell id="SnkdIcdr0kY23S-2RLd7-9" value="" style="endArrow=classic;html=1;rounded=0;entryX=0;entryY=0.5;entryDx=0;entryDy=0;exitX=0.463;exitY=1.038;exitDx=0;exitDy=0;exitPerimeter=0;" edge="1" parent="1" source="SnkdIcdr0kY23S-2RLd7-7" target="SnkdIcdr0kY23S-2RLd7-8">
          <mxGeometry width="50" height="50" relative="1" as="geometry">
            <mxPoint x="360" y="440" as="sourcePoint" />
            <mxPoint x="410" y="390" as="targetPoint" />
          </mxGeometry>
        </mxCell>
        <mxCell id="SnkdIcdr0kY23S-2RLd7-10" value="" style="endArrow=classic;html=1;rounded=0;exitX=0.457;exitY=0.017;exitDx=0;exitDy=0;exitPerimeter=0;" edge="1" parent="1" source="SnkdIcdr0kY23S-2RLd7-8" target="SnkdIcdr0kY23S-2RLd7-3">
          <mxGeometry width="50" height="50" relative="1" as="geometry">
            <mxPoint x="590" y="470" as="sourcePoint" />
            <mxPoint x="640" y="420" as="targetPoint" />
          </mxGeometry>
        </mxCell>
      </root>
    </mxGraphModel>
  </diagram>
</mxfile>
